<svg width="58" height="58" viewBox="0 0 58 58" fill="none" xmlns="http://www.w3.org/2000/svg">
<rect width="58" height="58" rx="10" fill="white"/>
<path fill-rule="evenodd" clip-rule="evenodd" d="M21.953 19.25C21.9686 19.25 21.9843 19.25 22 19.25L36.047 19.25C36.7139 19.25 37.2841 19.2499 37.7398 19.3074C38.2231 19.3684 38.6902 19.5053 39.0738 19.8652C39.4643 20.2315 39.6194 20.6886 39.6875 21.1641C39.7501 21.6008 39.7501 22.144 39.75 22.7636L39.75 23.5401C39.75 24.0286 39.75 24.4509 39.7136 24.8031C39.6743 25.1821 39.5885 25.5376 39.3825 25.8789C39.1781 26.2177 38.9028 26.4636 38.5854 26.684C38.2865 26.8917 37.9045 27.1067 37.4553 27.3596L34.5129 29.0159C33.8431 29.393 33.6099 29.5288 33.4542 29.6639C33.0966 29.9744 32.8918 30.3188 32.7956 30.7504C32.7545 30.9349 32.75 31.1672 32.75 31.8729L32.75 34.605C32.7501 35.5062 32.7501 36.2714 32.6574 36.8596C32.5587 37.4851 32.3298 38.0849 31.7298 38.4602C31.1434 38.827 30.4975 38.7933 29.8698 38.6442C29.2653 38.5007 28.5203 38.2094 27.6264 37.8599L27.5395 37.826C27.1208 37.6623 26.7541 37.519 26.4638 37.3691C26.1519 37.208 25.8622 37.0076 25.6406 36.6957C25.4164 36.3803 25.3266 36.042 25.2865 35.6963C25.2499 35.381 25.25 35.0026 25.25 34.5806L25.25 31.8729C25.25 31.1672 25.2456 30.9349 25.2044 30.7504C25.1082 30.3188 24.9034 29.9744 24.5458 29.6639C24.3901 29.5288 24.1569 29.393 23.4871 29.0159L20.5447 27.3596C20.0955 27.1067 19.7135 26.8917 19.4146 26.684C19.0972 26.4636 18.8219 26.2177 18.6175 25.8789C18.4115 25.5376 18.3257 25.1821 18.2864 24.8031C18.25 24.4509 18.25 24.0286 18.25 23.5401L18.25 22.8147C18.25 22.7976 18.25 22.7805 18.25 22.7636C18.25 22.144 18.2499 21.6008 18.3125 21.1641C18.3806 20.6886 18.5358 20.2315 18.9262 19.8652C19.3098 19.5053 19.777 19.3684 20.2602 19.3074C20.7159 19.2499 21.2861 19.25 21.953 19.25ZM20.448 20.7956C20.1143 20.8377 20.0082 20.9069 19.9525 20.9592C19.9036 21.0051 19.839 21.0858 19.7973 21.3768C19.7518 21.6945 19.75 22.1287 19.75 22.8147V23.5045C19.75 24.0387 19.7509 24.3828 19.7785 24.6485C19.8041 24.8961 19.8481 25.0151 19.9017 25.1039C19.9569 25.1953 20.0485 25.298 20.2703 25.4521C20.5041 25.6144 20.8234 25.7951 21.3099 26.069L24.223 27.7088C24.2502 27.7242 24.2771 27.7393 24.3036 27.7542C24.8623 28.0685 25.2428 28.2826 25.5292 28.5312C26.1206 29.0446 26.5 29.6682 26.6685 30.424C26.7504 30.7913 26.7502 31.2031 26.75 31.7845C26.75 31.8135 26.75 31.843 26.75 31.8729V34.5424C26.75 35.0146 26.7512 35.305 26.7765 35.5236C26.7994 35.7213 26.8355 35.7878 26.8633 35.8269C26.8936 35.8695 26.9536 35.9338 27.152 36.0363C27.3644 36.146 27.6571 36.2614 28.1192 36.442C29.0802 36.8177 29.7266 37.0685 30.2164 37.1848C30.695 37.2985 30.8527 37.2396 30.9343 37.1885C31.0023 37.146 31.1073 37.0597 31.1757 36.626C31.2478 36.1686 31.25 35.5234 31.25 34.5424V31.8729C31.25 31.843 31.25 31.8135 31.25 31.7845C31.2498 31.2031 31.2496 30.7913 31.3315 30.424C31.5 29.6682 31.8794 29.0446 32.4708 28.5312C32.7572 28.2826 33.1377 28.0685 33.6964 27.7542C33.7229 27.7393 33.7498 27.7242 33.7771 27.7088L36.6901 26.069C37.1767 25.7951 37.496 25.6144 37.7297 25.4521C37.9515 25.298 38.0431 25.1953 38.0983 25.1039C38.1519 25.0151 38.1959 24.8961 38.2215 24.6485C38.2491 24.3828 38.25 24.0387 38.25 23.5045V22.8147C38.25 22.1287 38.2482 21.6945 38.2027 21.3768C38.161 21.0858 38.0964 21.0051 38.0475 20.9592C37.9918 20.9069 37.8857 20.8377 37.5521 20.7956C37.2015 20.7514 36.727 20.75 36 20.75H22C21.273 20.75 20.7985 20.7514 20.448 20.7956Z" fill="#088B64"/>
</svg>
