<svg width="24" height="25" viewBox="0 0 24 25" fill="none" xmlns="http://www.w3.org/2000/svg">
<path fill-rule="evenodd" clip-rule="evenodd" d="M3.17157 5.84784C2 7.01942 2 8.90503 2 12.6763C2 16.4475 2 18.3331 3.17157 19.5047C4.34315 20.6763 6.22876 20.6763 10 20.6763H14C17.7712 20.6763 19.6569 20.6763 20.8284 19.5047C22 18.3331 22 16.4475 22 12.6763C22 8.90503 22 7.01942 20.8284 5.84784C19.6569 4.67627 17.7712 4.67627 14 4.67627H10C6.22876 4.67627 4.34315 4.67627 3.17157 5.84784ZM18.5762 8.19613C18.8413 8.51434 18.7983 8.98726 18.4801 9.25244L16.2837 11.0828C15.3973 11.8215 14.6789 12.4202 14.0448 12.828C13.3843 13.2528 12.7411 13.5211 12 13.5211C11.2589 13.5211 10.6157 13.2528 9.95518 12.828C9.32112 12.4202 8.60271 11.8215 7.71636 11.0828L5.51986 9.25244C5.20165 8.98726 5.15866 8.51434 5.42383 8.19613C5.68901 7.87792 6.16193 7.83493 6.48014 8.1001L8.63903 9.89918C9.57199 10.6766 10.2197 11.2147 10.7666 11.5664C11.2959 11.9069 11.6549 12.0211 12 12.0211C12.3451 12.0211 12.7041 11.9069 13.2334 11.5664C13.7803 11.2147 14.428 10.6766 15.361 9.89918L17.5199 8.1001C17.8381 7.83493 18.311 7.87792 18.5762 8.19613Z" fill="#088B64"/>
</svg>
