<svg width="24" height="25" viewBox="0 0 24 25" fill="none" xmlns="http://www.w3.org/2000/svg">
<path d="M10.0376 5.99244L10.6866 7.15537C11.2723 8.20485 11.0372 9.58159 10.1147 10.5041C10.1147 10.5041 10.1147 10.5041 10.1147 10.5041C10.1146 10.5042 8.99588 11.6231 11.0245 13.6518C13.0525 15.6797 14.1714 14.5624 14.1722 14.5616C14.1722 14.5615 14.1722 14.5615 14.1722 14.5615C15.0947 13.6391 16.4714 13.404 17.5209 13.9897L18.6838 14.6387C20.2686 15.5231 20.4557 17.7455 19.0628 19.1385C18.2258 19.9755 17.2004 20.6267 16.0669 20.6697C14.1588 20.7421 10.9183 20.2591 7.6677 17.0086C4.41713 13.758 3.93421 10.5175 4.00655 8.60936C4.04952 7.47587 4.7008 6.4505 5.53781 5.6135C6.93076 4.22055 9.15317 4.40771 10.0376 5.99244Z" fill="#088B64"/>
</svg>
